<?xml version="1.0" encoding="UTF-8" standalone="no"?>
<!DOCTYPE svg PUBLIC "-//W3C//DTD SVG 1.1//EN"
 "http://www.w3.org/Graphics/SVG/1.1/DTD/svg11.dtd">
<!-- Generated by graphviz version 2.49.3 (20211023.0002)
 -->
<!-- Title: G Pages: 1 -->
<svg width="127pt" height="260pt"
 viewBox="0.00 0.00 127.00 260.00" xmlns="http://www.w3.org/2000/svg" xmlns:xlink="http://www.w3.org/1999/xlink">
<g id="graph0" class="graph" transform="scale(1 1) rotate(0) translate(4 256)">
<title>G</title>
<!-- 1 -->
<g id="node1" class="node">
<title>1</title>
<ellipse fill="red" stroke="black" cx="82" cy="-234" rx="27" ry="18"/>
<text text-anchor="middle" x="82" y="-230.4" font-family="Times,serif" font-size="12.00">1</text>
</g>
<!-- 2 -->
<g id="node2" class="node">
<title>2</title>
<ellipse fill="red" stroke="black" cx="27" cy="-162" rx="27" ry="18"/>
<text text-anchor="middle" x="27" y="-158.4" font-family="Times,serif" font-size="12.00">2</text>
</g>
<!-- 1&#45;&gt;2 -->
<g id="edge1" class="edge">
<title>1&#45;&gt;2</title>
<path fill="none" stroke="black" d="M70.07,-217.81C62.79,-208.55 53.34,-196.52 45.15,-186.09"/>
<polygon fill="red" stroke="black" points="47.84,-183.86 38.91,-178.16 42.34,-188.18 47.84,-183.86"/>
</g>
<!-- 3 -->
<g id="node3" class="node">
<title>3</title>
<ellipse fill="red" stroke="black" cx="65" cy="-90" rx="27" ry="18"/>
<text text-anchor="middle" x="65" y="-86.4" font-family="Times,serif" font-size="12.00">3</text>
</g>
<!-- 2&#45;&gt;3 -->
<g id="edge2" class="edge">
<title>2&#45;&gt;3</title>
<path fill="none" stroke="black" d="M35.81,-144.76C40.42,-136.28 46.16,-125.71 51.32,-116.2"/>
<polygon fill="red" stroke="black" points="54.54,-117.61 56.23,-107.15 48.39,-114.27 54.54,-117.61"/>
</g>
<!-- 3&#45;&gt;1 -->
<g id="edge3" class="edge">
<title>3&#45;&gt;1</title>
<path fill="none" stroke="black" d="M67.06,-108.19C69.96,-132.42 75.28,-176.89 78.73,-205.68"/>
<polygon fill="red" stroke="black" points="75.29,-206.36 79.95,-215.87 82.24,-205.53 75.29,-206.36"/>
</g>
<!-- 4 -->
<g id="node4" class="node">
<title>4</title>
<ellipse fill="none" stroke="black" cx="92" cy="-18" rx="27" ry="18"/>
<text text-anchor="middle" x="92" y="-13.8" font-family="Times,serif" font-size="14.00">4</text>
</g>
<!-- 3&#45;&gt;4 -->
<g id="edge4" class="edge">
<title>3&#45;&gt;4</title>
<path fill="none" stroke="black" d="M71.4,-72.41C74.51,-64.34 78.33,-54.43 81.83,-45.35"/>
<polygon fill="black" stroke="black" points="85.13,-46.55 85.46,-35.96 78.6,-44.03 85.13,-46.55"/>
</g>
<!-- 4&#45;&gt;1 -->
<g id="edge5" class="edge">
<title>4&#45;&gt;1</title>
<path fill="none" stroke="black" d="M95.65,-36.09C97.68,-46.43 99.98,-59.91 101,-72 104.99,-119.37 95.45,-174.32 88.49,-206.22"/>
<polygon fill="black" stroke="black" points="85.04,-205.59 86.25,-216.12 91.87,-207.13 85.04,-205.59"/>
</g>
</g>
</svg>
